<?xml version="1.0" encoding="UTF-8" standalone="no" ?>
<!DOCTYPE svg PUBLIC "-//W3C//DTD SVG 1.1//EN" "http://www.w3.org/Graphics/SVG/1.1/DTD/svg11.dtd">
<svg xmlns="http://www.w3.org/2000/svg" xmlns:xlink="http://www.w3.org/1999/xlink" version="1.1" width="1080" height="1080" viewBox="0 0 1080 1080" xml:space="preserve">
<desc>Created with Fabric.js 5.2.4</desc>
<defs>
</defs>
<rect x="0" y="0" width="100%" height="100%" fill="transparent"></rect>
<g transform="matrix(1 0 0 1 540 540)" id="2dbdfcba-4608-4947-9e13-63a461bf12fd"  >
</g>
<g transform="matrix(1 0 0 1 540 540)" id="823ff08e-22d5-4a28-a58f-26edc3d67906"  >
<rect style="stroke: none; stroke-width: 1; stroke-dasharray: none; stroke-linecap: butt; stroke-dashoffset: 0; stroke-linejoin: miter; stroke-miterlimit: 4; fill: rgb(255,255,255); fill-rule: nonzero; opacity: 1; visibility: hidden;" vector-effect="non-scaling-stroke"  x="-540" y="-540" rx="0" ry="0" width="1080" height="1080" />
</g>
<g transform="matrix(0 0 0 0 0 0)"  >
<g style=""   >
</g>
</g>
<g transform="matrix(0 0 0 0 0 0)"  >
<g style=""   >
</g>
</g>
<g transform="matrix(0 0 0 0 0 0)"  >
<g style=""   >
</g>
</g>
<g transform="matrix(45 0 0 45 540 540)"  >
<path style="stroke: none; stroke-width: 1; stroke-dasharray: none; stroke-linecap: butt; stroke-dashoffset: 0; stroke-linejoin: miter; stroke-miterlimit: 4; fill: rgb(68,183,255); fill-rule: evenodd; opacity: 1;"  transform=" translate(-11.55, -12)" d="M 20.599 1.5 C 20.223 1.5 19.856 1.611 19.544 1.82 L 14.464 5.205 C 13.18928523710723 6.055085388511916 12.023590912333283 7.058234033887823 10.993 8.192 C 13.109894180448393 9.187097408532917 14.812902591467084 10.89010581955161 15.808 13.007000000000001 C 16.941822021687827 11.976091786569297 17.944972358546263 10.81005965748577 18.79500000000001 9.534999999999995 L 22.181 4.456000000000002 C 22.56946180022749 3.872477504196768 22.605465677294205 3.1225814376767334 22.274693765303237 2.5045272203282436 C 21.943921853312265 1.8864730029797538 21.299999900424762 1.5004614638574103 20.599 1.5 Z M 12.299 15.525 C 12.954554962646142 15.160921488450171 13.587690957181318 14.757864977161166 14.194999999999995 14.318000000000007 C 13.379189083709338 12.254498259635014 11.74550174036499 10.620810916290662 9.682000000000004 9.805 C 9.242149134413939 10.411972015096474 8.839092394403314 11.044774436239917 8.474999999999993 11.700000000000014 L 8.197 12.2 C 9.937365441625964 12.700717256187593 11.297765996602406 14.061495595267056 11.797999999999998 15.802000000000001 L 12.299999999999999 15.524 Z M 6.75 13.5 C 4.6789321881345245 13.5 3 15.178932188134524 3 17.25 C 3.0001119465022397 17.665437421521656 2.8279258944095527 18.062316280890503 2.5244767129593186 18.346053585469516 C 2.2210275315090846 18.62979089004853 1.8134946152291291 18.77497280248096 1.3990000000000018 18.747 C 1.1227260785487534 18.728428925064247 0.8586958798889494 18.86359186171019 0.7122227938654733 19.098576541144997 C 0.5657497078419972 19.333561220579803 0.5606662297359188 19.630133511088268 0.6990000000000001 19.87 C 1.8851497199845493 21.93057712943173 4.3080298508385555 22.936787915890292 6.604949901427882 22.322713371753146 C 8.90186995201721 21.708638827616 10.499380389770739 19.627588929958275 10.499 17.25 C 10.499 15.178932188134524 8.820067811865476 13.5 6.7490000000000006 13.5 Z" stroke-linecap="round" />
</g>
<g transform="matrix(NaN NaN NaN NaN 0 0)"  >
<g style=""   >
</g>
</g>
</svg>