<?xml version="1.0" standalone="no"?>
<!DOCTYPE svg PUBLIC "-//W3C//DTD SVG 20010904//EN"
 "http://www.w3.org/TR/2001/REC-SVG-20010904/DTD/svg10.dtd">
<svg version="1.0" xmlns="http://www.w3.org/2000/svg"
 width="500.000000pt" height="500.000000pt" viewBox="0 0 500.000000 500.000000"
 preserveAspectRatio="xMidYMid meet">
<metadata>
Created by potrace 1.14, written by Peter Selinger 2001-2017
</metadata>
<g transform="translate(0.000000,500.000000) scale(0.100000,-0.100000)"
fill="#000000" stroke="none">
<path d="M4015 3817 c-121 -41 -183 -114 -202 -242 -10 -71 -9 -770 1 -835 19
-114 99 -213 200 -244 56 -18 160 -23 212 -10 114 27 192 110 222 235 12 49
18 798 7 854 -21 109 -72 182 -151 221 -46 23 -72 28 -152 31 -63 2 -111 -2
-137 -10z m163 -254 c15 -20 13 17 14 -418 0 -341 -5 -412 -29 -416 -42 -7
-56 -4 -73 19 -19 23 -20 41 -17 414 l2 390 23 18 c26 21 61 18 80 -7z"/>
<path d="M639 3793 c0 -16 -2 -37 -4 -48 -2 -11 -7 -51 -10 -90 -3 -38 -8 -83
-10 -100 -2 -16 -7 -68 -11 -115 -3 -47 -7 -92 -9 -100 -2 -8 -6 -53 -10 -100
-4 -47 -8 -92 -10 -100 -2 -8 -6 -53 -9 -100 -4 -47 -9 -96 -11 -110 -3 -14
-7 -59 -10 -100 -3 -41 -8 -91 -10 -110 -5 -43 -17 -165 -20 -202 l-3 -28 129
0 c71 0 130 3 130 8 3 17 7 61 10 125 2 38 8 71 13 74 13 9 146 10 151 2 4 -5
15 -134 18 -196 0 -10 33 -13 129 -13 l128 0 -5 58 c-4 31 -8 73 -10 92 -5 46
-13 128 -20 215 -6 71 -12 125 -20 205 -5 44 -8 83 -20 210 -3 36 -8 83 -10
105 -2 22 -7 72 -10 110 -4 39 -8 81 -10 95 -2 14 -7 63 -11 110 -4 47 -8 94
-9 105 -2 19 -10 20 -228 23 l-227 2 -1 -27z m236 -288 c4 -44 9 -96 10 -115
6 -81 16 -197 20 -225 2 -16 7 -70 11 -120 3 -49 8 -98 9 -107 4 -18 -2 -20
-60 -20 -59 0 -56 -4 -50 85 10 157 15 232 20 282 2 28 7 95 11 150 6 89 8
116 13 149 3 24 9 -6 16 -79z"/>
<path d="M1299 3803 c0 -10 -1 -309 -2 -666 l-2 -647 273 0 272 0 0 113 0 113
-131 0 c-72 -1 -134 1 -137 4 -4 3 -7 250 -7 550 l0 545 -132 3 c-122 2 -133
1 -134 -15z"/>
<path d="M2009 3818 c-4 -13 -8 -45 -14 -113 -4 -44 -8 -93 -10 -110 -8 -73
-24 -237 -29 -295 -8 -87 -17 -185 -21 -215 -2 -16 -7 -66 -10 -110 -4 -44 -8
-91 -10 -105 -2 -14 -6 -54 -10 -90 -3 -36 -8 -81 -10 -100 -2 -19 -7 -70 -10
-112 l-7 -78 131 0 131 0 0 28 c1 74 13 178 22 183 12 8 136 4 145 -4 4 -4 8
-27 10 -50 2 -23 5 -53 7 -67 3 -14 5 -40 5 -57 l1 -33 126 0 126 0 -7 88 c-4
48 -9 101 -10 117 -13 145 -18 192 -20 206 -2 8 -6 55 -10 105 -4 49 -8 100
-10 114 -2 14 -6 52 -9 85 -15 149 -17 173 -21 215 -3 25 -7 70 -10 100 -11
127 -17 196 -20 215 -1 11 -3 35 -4 53 l-1 32 -225 0 c-124 0 -225 -1 -226 -2z
m225 -254 c4 -18 11 -98 21 -226 3 -32 7 -84 10 -115 3 -32 7 -78 9 -103 2
-25 7 -80 11 -122 8 -85 11 -80 -55 -80 -57 0 -58 0 -55 35 2 17 6 77 10 132
3 55 8 114 10 130 2 17 6 81 10 144 4 62 9 121 10 130 2 9 4 36 4 60 1 44 8
51 15 15z"/>
<path d="M2663 3155 l0 -665 118 0 c85 0 118 3 121 13 2 6 4 213 3 459 0 246
1 445 3 444 3 -4 7 -24 17 -91 3 -22 7 -47 10 -55 3 -14 10 -52 20 -120 2 -14
18 -106 35 -205 17 -99 33 -198 36 -220 3 -22 9 -56 14 -75 4 -19 11 -61 15
-92 l6 -58 125 0 c122 0 124 0 125 23 0 12 2 31 4 42 2 11 6 38 10 61 3 22 8
52 10 65 9 57 37 227 41 254 2 17 6 41 9 55 3 14 7 40 10 58 3 17 7 44 10 60
2 15 11 74 20 132 23 147 24 152 28 156 2 2 3 -201 3 -451 l-1 -455 123 0 122
0 0 665 0 665 -204 0 -204 0 -6 -42 c-4 -24 -9 -61 -11 -83 -3 -22 -7 -51 -10
-65 -3 -14 -7 -43 -10 -65 -2 -22 -7 -56 -10 -75 -10 -73 -17 -126 -20 -150
-16 -140 -40 -290 -47 -290 -4 0 -8 12 -9 28 0 15 -2 36 -3 47 -2 11 -6 45
-10 75 -4 30 -9 62 -11 70 -2 8 -7 40 -10 70 -3 30 -8 66 -10 80 -8 56 -15
107 -20 145 -3 23 -7 50 -9 60 -2 11 -7 49 -12 85 -5 36 -9 70 -10 75 -1 6 -2
16 -3 23 -1 9 -49 12 -204 12 l-204 0 0 -665z"/>
<path d="M474 2159 c4 -30 9 -67 12 -84 2 -16 6 -48 10 -70 4 -22 8 -56 10
-75 2 -19 6 -46 8 -60 3 -14 8 -49 11 -79 4 -30 8 -63 11 -74 2 -10 6 -45 10
-76 3 -31 8 -63 9 -73 2 -9 6 -38 10 -65 14 -112 14 -113 40 -113 25 0 27 5
41 110 4 30 8 57 9 60 1 3 5 32 9 65 5 33 10 69 12 80 7 36 13 69 24 150 6 44
13 91 16 105 3 14 7 48 11 75 11 95 16 83 42 -100 22 -151 24 -163 36 -245 4
-25 8 -56 10 -70 4 -27 23 -149 29 -190 3 -14 5 -28 5 -32 1 -12 51 -9 52 2 1
6 2 13 3 18 1 4 6 36 10 72 4 36 9 72 11 81 1 8 6 41 9 71 4 31 8 64 10 74 2
11 7 44 11 74 4 30 9 62 10 70 2 8 6 38 9 65 6 48 12 88 22 157 16 114 16 128
0 128 -9 0 -16 -1 -16 -3 0 -2 -9 -68 -20 -148 -27 -196 -31 -220 -35 -249 -4
-28 -11 -81 -21 -155 -3 -27 -8 -57 -9 -66 -2 -9 -6 -40 -10 -70 -4 -30 -8
-55 -10 -57 -2 -2 -19 96 -30 173 -2 11 -8 54 -15 95 -6 41 -13 86 -15 100 -6
44 -26 174 -31 200 -2 14 -9 60 -16 103 -7 49 -16 77 -24 77 -17 0 -21 -8 -29
-60 -3 -25 -10 -67 -15 -95 -5 -27 -12 -70 -15 -95 -3 -25 -12 -83 -20 -130
-8 -47 -17 -103 -20 -125 -2 -22 -7 -51 -9 -65 -3 -14 -7 -41 -10 -60 -12 -82
-18 -115 -21 -118 -1 -2 -6 25 -10 60 -4 35 -9 72 -11 83 -2 11 -6 45 -9 75
-3 30 -8 62 -10 70 -2 8 -7 38 -10 65 -8 65 -25 193 -31 225 -2 14 -7 50 -10
80 -4 30 -8 62 -9 70 -1 8 -10 17 -20 19 -16 3 -17 -2 -11 -50z"/>
<path d="M1109 2191 c0 -19 0 -734 0 -773 l1 -28 130 0 c109 0 130 2 130 15 0
12 -19 15 -115 15 l-116 0 3 97 3 97 88 1 c48 0 87 3 87 8 0 4 0 10 0 15 0 4
-41 7 -90 7 l-90 0 2 265 3 265 100 1 c128 2 125 2 125 18 0 10 -27 13 -130
13 -112 0 -130 -2 -131 -16z"/>
<path d="M1469 2202 c-1 -4 -2 -188 -3 -410 l-1 -404 112 4 c108 3 114 4 140
31 26 26 28 33 28 113 0 83 -1 87 -30 113 l-30 27 30 43 c30 43 30 43 33 202
3 145 1 164 -17 202 -30 63 -68 81 -173 83 -49 1 -89 -1 -89 -4z m201 -52 c16
-11 32 -33 38 -48 14 -41 9 -321 -7 -352 -22 -44 -57 -62 -132 -66 l-69 -4 -1
37 c-3 150 0 444 5 451 10 17 137 3 166 -18z m11 -513 c30 -23 40 -56 35 -119
-6 -86 -16 -93 -127 -93 l-91 0 0 90 c0 50 1 100 1 113 1 21 5 22 84 22 49 -1
88 -6 98 -13z"/>
<path d="M2099 2207 c-4 -6 -4 -794 -1 -804 7 -21 179 -17 222 5 68 34 72 53
71 396 0 258 -2 309 -16 335 -27 53 -55 64 -171 67 -57 2 -105 2 -105 1z m218
-48 c39 -21 44 -68 41 -384 l-3 -295 -27 -26 c-25 -25 -34 -28 -112 -30 l-86
-2 0 378 0 378 81 -3 c45 -2 92 -9 106 -16z"/>
<path d="M2509 2206 c0 -1 -1 -766 0 -793 1 -23 3 -23 131 -23 109 0 130 2
130 15 0 12 -19 15 -115 15 l-115 0 0 94 c0 66 4 95 13 98 6 2 47 4 89 3 54
-1 79 3 82 12 7 18 0 19 -96 19 l-88 -1 0 265 0 266 103 -1 c112 -1 127 1 127
20 0 9 -33 12 -130 12 -71 0 -130 -1 -131 -1z"/>
<path d="M2925 2196 c-59 -26 -70 -56 -73 -206 -4 -162 4 -179 101 -239 143
-89 147 -92 155 -124 5 -18 7 -48 6 -67 -1 -19 -2 -45 -3 -57 -1 -12 -12 -35
-26 -51 -33 -39 -90 -50 -138 -27 -49 23 -62 59 -66 176 -1 9 -8 16 -16 16
-23 0 -20 -108 4 -156 25 -48 60 -71 119 -77 96 -11 152 49 160 170 5 93 -15
124 -123 188 -95 57 -131 89 -137 123 -3 13 -4 74 -4 133 2 95 5 112 24 140
15 20 35 33 57 38 82 15 127 -34 127 -141 0 -39 6 -69 13 -75 18 -15 23 5 20
84 -2 42 -10 80 -21 102 -31 58 -110 80 -179 50z"/>
<path d="M3257 2203 c-3 -7 -2 -768 2 -800 0 -7 8 -13 16 -13 13 0 15 52 15
410 0 350 -2 410 -14 410 -8 0 -16 -3 -19 -7z"/>
<path d="M3485 2193 c-16 -9 -37 -25 -45 -37 -35 -48 -39 -83 -39 -364 0 -269
1 -282 22 -323 30 -59 64 -82 126 -82 94 -2 141 57 148 184 l5 79 -81 0 c-64
0 -81 -3 -81 -15 0 -10 16 -15 63 -17 l62 -3 0 -45 c1 -83 -40 -149 -94 -151
-67 -3 -110 25 -127 84 -6 18 -9 156 -9 307 1 240 3 279 19 308 36 69 130 80
180 21 14 -17 27 -40 28 -52 1 -12 3 -31 4 -42 1 -11 2 -30 3 -42 1 -14 7 -23
16 -23 23 0 18 94 -7 148 -34 72 -124 102 -193 65z"/>
<path d="M3800 1801 c0 -385 1 -411 18 -411 16 0 17 23 17 350 -1 192 1 348 2
346 4 -4 85 -235 153 -436 23 -69 45 -134 50 -145 4 -11 15 -41 25 -67 17 -50
45 -65 46 -25 0 29 0 746 0 775 -1 12 -7 22 -16 22 -13 0 -15 -49 -17 -355
l-3 -355 -94 277 c-147 431 -146 428 -164 431 -16 3 -17 -27 -17 -407z"/>
<path d="M4294 2194 c-53 -26 -68 -65 -71 -189 -1 -60 0 -125 3 -143 9 -45 57
-91 149 -142 99 -55 115 -80 111 -173 -3 -59 -8 -72 -32 -98 -35 -36 -79 -45
-127 -26 -48 21 -66 52 -71 126 -5 67 -8 77 -26 66 -17 -10 -5 -128 16 -164
38 -65 145 -89 209 -47 48 32 60 63 60 158 0 84 -1 89 -30 117 -16 17 -66 52
-109 78 -116 70 -121 79 -120 222 2 134 14 170 64 191 42 17 97 3 123 -31 15
-21 20 -45 21 -103 1 -65 3 -76 19 -76 15 0 17 9 14 78 -3 86 -22 129 -67 156
-35 20 -95 20 -136 0z"/>
</g>
</svg>
